<svg width="5000" height="5000" viewBox="0 0 5000 5000" fill="none" xmlns="http://www.w3.org/2000/svg">
<path d="M2500 0C3880.71 0 5000 1119.29 5000 2500C5000 3880.71 3880.71 5000 2500 5000C1119.29 5000 0 3880.71 0 2500C0 1119.29 1119.29 0 2500 0ZM2500 250C1257.36 250 250 1257.36 250 2500C250 3742.64 1257.36 4750 2500 4750C3742.64 4750 4750 3742.64 4750 2500C4750 1257.36 3742.64 250 2500 250Z" fill="white"/>
<path d="M2500 500C3604.57 500 4500 1395.43 4500 2500C4500 3604.57 3604.57 4500 2500 4500C1395.43 4500 500 3604.57 500 2500C500 1395.43 1395.43 500 2500 500ZM2500 1000C1671.57 1000 1000 1671.57 1000 2500C1000 3328.43 1671.57 4000 2500 4000C3328.43 4000 4000 3328.43 4000 2500C4000 1671.57 3328.43 1000 2500 1000Z" fill="white"/>
</svg>
